<svg xmlns="http://www.w3.org/2000/svg" viewBox="0 0 24 24" width="24" height="24" role="img" aria-label="Node.js">
  <defs>
    <linearGradient id="nd-a" x1="0" y1="0" x2="1" y2="1">
      <stop offset="0%" stop-color="#3c873a"/>
      <stop offset="100%" stop-color="#68a063"/>
    </linearGradient>
  </defs>
  <path d="M12 1 L22 6.5 L22 17.5 L12 23 L2 17.5 L2 6.5 Z" fill="url(#nd-a)"/>
  <path d="M12 7 C 10 7 8.5 8 8.5 10 L 8.5 14 C 8.5 16 10 17 12 17 L 12 15 C 11 15 10.5 14.6 10.5 14 L 10.5 10 C 10.5 9.4 11 9 12 9 Z M 13 9 L 15.5 9 L 15.5 14 C 15.5 14.6 15 15 14.5 15 C 14 15 13.5 14.6 13.5 14 L 11.5 14 C 11.5 16 13 17 14.5 17 C 16 17 17.5 16 17.5 14 L 17.5 7 L 13 7 Z"
        fill="#fff"/>
</svg>
