<svg xmlns="http://www.w3.org/2000/svg" viewBox="0 0 24 24" width="24" height="24" role="img" aria-label="Tailwind CSS">
  <defs>
    <linearGradient id="tw-a" x1="0" y1="0" x2="1" y2="0">
      <stop offset="0%" stop-color="#2dd4bf"/>
      <stop offset="100%" stop-color="#0ea5e9"/>
    </linearGradient>
  </defs>
  <path d="M7 6 C 4 6 2.5 8 2 10 C 3 8.5 4.2 8 5.5 8.5 C 6.3 8.8 6.9 9.4 7.5 10.1 C 8.5 11.2 9.7 12.4 12 12.4 C 15 12.4 16.5 10.4 17 8.4 C 16 9.9 14.8 10.4 13.5 9.9 C 12.7 9.6 12.1 9 11.5 8.3 C 10.5 7.2 9.3 6 7 6 Z" fill="url(#tw-a)"/>
  <path d="M12 12.4 C 9 12.4 7.5 14.4 7 16.4 C 8 14.9 9.2 14.4 10.5 14.9 C 11.3 15.2 11.9 15.8 12.5 16.5 C 13.5 17.6 14.7 18.8 17 18.8 C 20 18.8 21.5 16.8 22 14.8 C 21 16.3 19.8 16.8 18.5 16.3 C 17.7 16 17.1 15.4 16.5 14.7 C 15.5 13.6 14.3 12.4 12 12.4 Z" fill="url(#tw-a)"/>
</svg>
