<svg xmlns="http://www.w3.org/2000/svg" viewBox="0 0 24 24" width="24" height="24" role="img" aria-label="TypeScript">
  <rect width="24" height="24" rx="3" fill="#3178c6"/>
  <path d="M11.5 13.5 L11.5 11 L5.5 11 L5.5 13.5 L7.5 13.5 L7.5 20 L9.5 20 L9.5 13.5 Z"
        fill="#fff"/>
  <path d="M13 17.5 C 13.6 19 15 20.2 17 20.2 C 19 20.2 20.4 19.2 20.4 17.4 C 20.4 15.6 19.1 15 17.4 14.4 C 16.4 14 15.8 13.7 15.8 13.1 C 15.8 12.6 16.3 12.3 17 12.3 C 17.8 12.3 18.3 12.7 18.6 13.4 L 20.3 12.5 C 19.7 11.2 18.5 10.6 17 10.6 C 15 10.6 13.8 11.7 13.8 13.2 C 13.8 14.9 15.1 15.5 16.7 16 C 17.7 16.4 18.4 16.6 18.4 17.4 C 18.4 17.9 17.9 18.3 17 18.3 C 16 18.3 15.3 17.8 14.9 17 Z"
        fill="#fff"/>
</svg>
